<svg width="363" height="363" viewBox="0 0 363 363" fill="none" xmlns="http://www.w3.org/2000/svg">
<g clip-path="url(#clip0_1_300)">
<path d="M181.5 12.5C274.836 12.5 350.5 88.1639 350.5 181.5C350.5 274.836 274.836 350.5 181.5 350.5C88.1639 350.5 12.5 274.836 12.5 181.5C12.5 88.1639 88.1639 12.5 181.5 12.5Z" fill="#1F272D" stroke="white" stroke-width="25"/>
<path d="M81.8705 97.3596C82.7705 97.8596 88.1705 99.3596 93.8705 100.86C135.371 111.16 165.871 126.56 188.671 148.76C216.371 175.66 226.271 208.86 219.271 251.86C217.471 263.06 216.071 267.36 214.371 267.36C212.971 267.36 178.271 226.96 176.071 222.76C174.971 220.66 174.971 219.26 176.371 213.86C178.371 205.66 180.971 181.36 180.971 169.96C180.971 161.76 180.771 160.86 178.671 159.16C175.171 156.46 170.671 156.86 167.571 160.16C165.071 162.76 164.971 163.46 163.471 183.66C162.671 195.16 161.771 204.76 161.371 205.16C160.471 206.16 151.671 195.96 126.171 164.46C120.571 157.56 112.971 148.56 109.171 144.56C101.271 136.16 98.5705 135.46 93.7705 140.26C89.0705 144.96 89.7705 147.26 99.0705 157.66C103.671 162.76 109.371 169.56 111.871 172.76C114.371 175.86 117.371 179.76 118.671 181.16C119.871 182.66 125.071 189.26 130.171 195.76C135.271 202.36 141.571 210.06 144.271 213.06L149.071 218.26L142.271 217.76C138.471 217.46 128.571 216.06 120.271 214.76C108.271 212.86 104.571 212.56 102.571 213.46C100.171 214.56 97.8705 218.06 97.8705 220.76C97.8705 223.56 101.971 227.26 105.671 227.86C107.671 228.26 115.171 229.56 122.371 230.96C129.471 232.26 141.771 234.06 149.671 234.86C157.571 235.66 164.771 236.76 165.671 237.26C166.571 237.76 170.071 241.46 173.371 245.36C176.671 249.36 182.171 255.96 185.671 260.06C189.071 264.16 194.271 270.76 197.171 274.66C200.171 278.66 203.271 282.46 204.171 283.26C205.071 283.96 205.871 284.96 205.871 285.36C205.871 288.46 169.271 290.06 156.371 287.46C109.671 278.06 75.4705 244.76 64.7705 198.36C62.1705 187.36 61.1705 160.46 62.7705 147.86C64.7705 132.56 70.8705 112.06 76.8705 100.26C79.0705 96.1596 79.4705 95.8596 81.8705 97.3596Z" fill="#8AD98A"/>
<path d="M177.591 299.229C188.406 299.694 201.57 299.494 208.982 298.001L208.981 298C258.557 288.02 295.027 252.518 306.398 203.274H306.399C307.875 197.029 308.791 186.947 309.17 177.189C309.55 167.371 309.417 157.014 308.54 150.104L308.539 150.09L308.537 150.077C306.442 134.054 300.125 112.713 293.685 100.049L293.648 99.9752L293.609 99.9019C293.074 98.9055 292.485 97.8266 291.884 96.9176C291.367 96.1364 290.264 94.5516 288.398 93.4459C285.963 92.0029 283.413 92.0043 281.395 92.5894C280.267 92.9167 279.277 93.4387 278.606 93.8336C278.508 93.8675 278.384 93.9119 278.231 93.9615C277.627 94.1577 276.782 94.4127 275.728 94.7154C273.648 95.3131 270.96 96.0407 268.152 96.7799C225.813 107.293 193.987 123.188 169.968 146.575V146.576C140.276 175.415 129.861 211.188 137.197 256.254C138.1 261.872 138.97 266.223 139.94 269.272C140.408 270.744 141.066 272.466 142.095 273.958C143.078 275.385 145.456 278.048 149.5 278.048L149.848 278.041C151.558 277.961 152.773 277.315 153.013 277.192C153.51 276.937 153.891 276.676 154.097 276.528C154.527 276.22 154.896 275.899 155.139 275.681C155.659 275.216 156.242 274.639 156.822 274.046C158.011 272.829 159.567 271.15 161.329 269.201C164.872 265.283 169.454 260.049 174.04 254.71C178.627 249.368 183.255 243.877 186.887 239.44C188.7 237.226 190.293 235.24 191.518 233.651C192.558 232.303 193.801 230.655 194.444 229.428C195.451 227.505 196.168 225.36 196.085 222.517C196.02 220.302 195.458 217.87 194.786 215.272L194.787 215.271C193.919 211.711 192.809 204.037 191.909 195.511C191.017 187.066 190.4 178.45 190.4 173.148C190.4 171.096 190.413 169.641 190.458 168.546C190.463 168.414 190.47 168.292 190.476 168.178C190.568 168.237 190.691 168.332 190.834 168.484L190.863 168.515L190.893 168.546C190.995 168.652 191.069 168.737 191.126 168.798C191.172 168.97 191.249 169.279 191.336 169.781C191.78 172.343 192.153 177.07 192.921 187.404C193.323 193.18 193.752 198.513 194.135 202.481C194.325 204.457 194.51 206.163 194.682 207.439C194.766 208.06 194.862 208.694 194.972 209.248C195.024 209.508 195.11 209.907 195.24 210.338C195.304 210.549 195.422 210.912 195.609 211.334C195.72 211.582 196.157 212.572 197.098 213.55C199.676 216.247 202.955 216.052 204.435 215.713C205.838 215.393 206.869 214.756 207.312 214.467C208.324 213.81 209.267 212.949 210.012 212.227C211.618 210.672 213.782 208.291 216.549 205.09C222.138 198.624 230.784 188.112 243.523 172.375L245.697 169.713C250.545 163.814 256.14 157.229 259.423 153.678L260.137 152.914L260.15 152.9L260.164 152.886C262.071 150.859 263.451 149.527 264.5 148.673C264.54 148.641 264.581 148.61 264.619 148.58C264.675 148.634 264.735 148.69 264.797 148.752C264.842 148.797 264.884 148.842 264.926 148.884C264.74 149.168 264.5 149.516 264.19 149.933C263.11 151.389 261.522 153.263 259.23 155.826V155.825C254.574 160.987 248.821 167.847 246.162 171.241L244.123 173.793C242.163 176.262 240.503 178.384 239.704 179.245L239.516 179.448L239.344 179.664C238.116 181.198 232.892 187.829 227.8 194.319L227.782 194.34L227.765 194.363C222.71 200.905 216.553 208.42 214.035 211.22L209.289 216.361L196.403 230.322L215.35 228.928L222.15 228.428L222.17 228.426L222.19 228.425C225.811 228.14 234.067 226.994 241.595 225.847L244.761 225.358L244.773 225.356L246.926 225.019C251.412 224.325 254.363 223.93 256.387 223.759C253.869 224.246 247.494 225.344 240.149 226.771L238.793 227.014C231.731 228.256 220.646 229.857 213.444 230.587C209.392 230.997 205.494 231.487 202.456 231.945C200.946 232.173 199.583 232.402 198.491 232.622C197.952 232.73 197.399 232.852 196.891 232.987C196.625 233.058 195.578 233.325 194.557 233.892C193.375 234.549 192.326 235.551 191.931 235.924C191.289 236.531 190.561 237.269 189.81 238.06C188.299 239.653 186.503 241.661 184.774 243.704L184.745 243.74L184.715 243.776C181.426 247.762 175.957 254.325 172.496 258.379L172.461 258.42L172.427 258.461C168.958 262.643 163.69 269.33 160.7 273.349V273.348C159.254 275.276 157.791 277.147 156.597 278.612C155.999 279.347 155.492 279.951 155.103 280.396C154.886 280.645 154.75 280.792 154.684 280.863C153.931 281.495 153.242 282.2 152.675 282.903C152.343 283.314 151.939 283.864 151.577 284.518C151.389 284.857 150.607 286.246 150.51 288.159L150.5 288.548L150.509 288.93C150.684 292.816 153.495 294.845 154.245 295.346C155.354 296.088 156.506 296.515 157.267 296.764C158.893 297.296 160.863 297.676 162.807 297.967C166.808 298.568 172.079 298.992 177.591 299.229Z" fill="white" stroke="#21272B" stroke-width="15"/>
<path d="M181.5 12.5C274.836 12.5 350.5 88.1639 350.5 181.5C350.5 274.836 274.836 350.5 181.5 350.5C88.1639 350.5 12.5 274.836 12.5 181.5C12.5 88.1639 88.1639 12.5 181.5 12.5Z" stroke="white" stroke-width="25"/>
</g>
<defs>
<clipPath id="clip0_1_300">
<rect width="363" height="363" fill="white"/>
</clipPath>
</defs>
</svg>
