<svg width="675" height="211" viewBox="0 0 675 211" fill="none" xmlns="http://www.w3.org/2000/svg">
<path d="M93.3314 39.7428L35.6327 186.147H0.582031L64.482 24.3744C71.2225 7.38836 83.6251 0.91748 102.768 0.91748C121.642 0.91748 134.044 7.38836 140.515 24.3744L201.988 186.147H166.668L111.396 39.7428C109.778 35.4289 106.812 33.5415 102.498 33.5415C98.1846 33.5415 95.2187 35.4289 93.3314 39.7428Z" fill="white"/>
<path d="M224.828 4.15293H263.653L319.465 71.2884L377.972 4.15293H417.337L339.417 93.6669L417.876 186.147H379.051L318.656 113.888L256.643 186.147H217.279L298.704 91.2403L224.828 4.15293Z" fill="white"/>
<path d="M444.906 4.15293H476.721V186.147H444.906V4.15293Z" fill="white"/>
<path d="M568.998 4.15293L661.209 4.15293V35.9681H567.92C551.473 35.9681 544.193 44.8656 544.193 57.5377C544.193 68.5922 549.855 79.1074 571.155 79.1074H613.755C663.365 79.1074 674.959 106.609 674.959 132.762C674.959 163.499 662.769 193.561 613.755 199.627C564.741 205.694 48.7092 210.412 48.7092 210.412C48.7092 210.412 478.079 194.909 521.893 192.213C565.706 189.517 592.668 182.776 613.755 173.339C634.843 163.903 643.144 144.895 643.144 131.683C643.144 119.82 636.943 109.035 614.564 109.035H572.234C523.702 109.035 512.378 81.8036 512.378 56.4593C512.378 26.2618 528.555 4.15293 568.998 4.15293Z" fill="white"/>
</svg>
